<svg width="40" height="40" viewBox="0 0 61 61" fill="none" xmlns="http://www.w3.org/2000/svg">
<rect y="0.0908813" width="27.2727" height="27.2727" rx="10" fill="#F23A3A"/>
<path d="M13.528 19.09C13.228 19.09 12.964 19 12.736 18.82C12.508 18.64 12.394 18.358 12.394 17.974L12.412 17.776C12.544 16.54 12.7 15.256 12.88 13.924C13.072 12.58 13.234 11.548 13.366 10.828L11.962 11.224L11.746 11.26C11.518 11.26 11.338 11.17 11.206 10.99C11.074 10.81 11.008 10.606 11.008 10.378L11.026 10.216C11.05 9.988 11.122 9.802 11.242 9.658C11.362 9.514 11.59 9.37 11.926 9.226C12.274 9.082 12.79 8.926 13.474 8.758L14.23 8.578C14.506 8.518 14.734 8.488 14.914 8.488C15.262 8.488 15.52 8.578 15.688 8.758C15.868 8.938 15.958 9.19 15.958 9.514C15.958 9.658 15.94 9.814 15.904 9.982C15.712 10.918 15.346 13.582 14.806 17.974C14.71 18.718 14.284 19.09 13.528 19.09Z" fill="#C9182B"/>
<rect y="32.36" width="27.2727" height="27.2727" rx="10" fill="#E3F3AC"/>
<path d="M15.39 47.4118C16.002 47.4958 16.512 47.7478 16.92 48.1678C17.34 48.5878 17.55 49.1158 17.55 49.7518C17.55 50.3638 17.364 50.8858 16.992 51.3178C16.62 51.7498 16.116 52.0798 15.48 52.3078C14.856 52.5238 14.172 52.6318 13.428 52.6318C12.12 52.6318 11.136 52.4038 10.476 51.9478C9.828 51.4918 9.504 50.9218 9.504 50.2378C9.504 49.8418 9.6 49.5358 9.792 49.3198C9.984 49.0918 10.242 48.9778 10.566 48.9778C10.842 48.9778 11.046 49.0498 11.178 49.1938C11.322 49.3258 11.442 49.5598 11.538 49.8958C11.622 50.2198 11.796 50.4658 12.06 50.6338C12.324 50.8018 12.732 50.8858 13.284 50.8858C13.812 50.8858 14.244 50.7898 14.58 50.5978C14.928 50.3938 15.102 50.0878 15.102 49.6798C15.102 49.2598 14.94 48.9538 14.616 48.7618C14.292 48.5578 13.788 48.4438 13.104 48.4198C12.852 48.4078 12.66 48.3238 12.528 48.1678C12.408 47.9998 12.348 47.8018 12.348 47.5738C12.348 47.2858 12.396 47.0818 12.492 46.9618C12.6 46.8298 12.78 46.7398 13.032 46.6918C13.824 46.5718 14.394 46.3438 14.742 46.0078C15.102 45.6598 15.282 45.2458 15.282 44.7658C15.282 44.1058 14.826 43.7758 13.914 43.7758C12.906 43.7758 12.312 44.1718 12.132 44.9638C12.048 45.2878 11.922 45.5218 11.754 45.6658C11.598 45.7978 11.376 45.8638 11.088 45.8638C10.764 45.8638 10.512 45.7738 10.332 45.5938C10.164 45.4018 10.08 45.1498 10.08 44.8378C10.08 44.3578 10.248 43.9018 10.584 43.4698C10.92 43.0378 11.394 42.6898 12.006 42.4258C12.63 42.1618 13.356 42.0298 14.184 42.0298C15.336 42.0298 16.218 42.2518 16.83 42.6958C17.442 43.1398 17.748 43.7998 17.748 44.6758C17.748 45.2518 17.526 45.7918 17.082 46.2958C16.65 46.7878 16.086 47.1598 15.39 47.4118Z" fill="#C9182B"/>
<rect x="32.27" y="0.0908813" width="27.2727" height="27.2727" rx="10" fill="#44C662"/>
<path d="M48.838 16.984C49.09 16.984 49.282 17.068 49.414 17.236C49.546 17.404 49.612 17.614 49.612 17.866C49.612 18.178 49.51 18.46 49.306 18.712C49.114 18.952 48.85 19.072 48.514 19.072C47.938 19.072 47.08 19.03 45.94 18.946C45.712 18.934 45.292 18.91 44.68 18.874C44.068 18.838 43.588 18.82 43.24 18.82C43.084 18.82 42.856 18.874 42.556 18.982C42.496 18.994 42.376 19.024 42.196 19.072C42.028 19.12 41.884 19.144 41.764 19.144C41.572 19.144 41.41 19.06 41.278 18.892C41.158 18.712 41.098 18.448 41.098 18.1C41.098 17.716 41.188 17.422 41.368 17.218C41.548 17.002 41.83 16.81 42.214 16.642C43.03 16.282 43.798 15.826 44.518 15.274C45.25 14.71 45.832 14.104 46.264 13.456C46.708 12.808 46.93 12.19 46.93 11.602C46.93 11.134 46.822 10.792 46.606 10.576C46.402 10.348 46.072 10.234 45.616 10.234C45.088 10.234 44.662 10.378 44.338 10.666C44.026 10.954 43.87 11.356 43.87 11.872C43.87 12.58 43.516 12.934 42.808 12.934C42.472 12.934 42.208 12.838 42.016 12.646C41.836 12.454 41.746 12.178 41.746 11.818C41.746 11.218 41.902 10.666 42.214 10.162C42.526 9.658 42.994 9.256 43.618 8.956C44.242 8.644 45.004 8.488 45.904 8.488C46.984 8.488 47.83 8.758 48.442 9.298C49.054 9.838 49.36 10.588 49.36 11.548C49.36 12.46 48.958 13.414 48.154 14.41C47.362 15.406 46.216 16.288 44.716 17.056L48.838 16.984Z" fill="#C9182B"/>
</svg>
